<?xml version="1.0" encoding="utf-8"?>
<!-- Generator: Adobe Illustrator 22.0.0, SVG Export Plug-In . SVG Version: 6.00 Build 0)  -->
<svg version="1.1" xmlns="http://www.w3.org/2000/svg" xmlns:xlink="http://www.w3.org/1999/xlink" x="0px" y="0px"
	 viewBox="0 0 512 512" style="enable-background:new 0 0 512 512;" xml:space="preserve">
<style type="text/css">
	.st0{display:none;}
	.st1{display:inline;stroke:#000000;stroke-miterlimit:10;}
	.st2{display:inline;fill:#FFFFFF;}
	.st3{fill:#FFFFFF;}
	.st4{display:inline;fill:#FCFCFC;}
</style>
<g id="Capa_2" class="st0">
	<rect class="st1" width="512" height="512"/>
</g>
<g id="Capa_1" class="st0">
	<path class="st2" d="M464,64c26.5,0,48,21.5,48,48c0,15.1-7.1,29.3-19.2,38.4L275.2,313.6c-11.4,8.5-27,8.5-38.4,0L19.2,150.4
		C7.1,141.3,0,127.1,0,112c0-26.5,21.5-48,48-48H464z M217.6,339.2c22.8,17.1,54,17.1,76.8,0L512,176v208c0,35.3-28.7,64-64,64H64
		c-35.3,0-64-28.7-64-64V176L217.6,339.2z"/>
</g>
<g id="Capa_3">
	<path class="st3" d="M406.9,64H105.1C82.4,64,64,82.4,64,105.1v301.7c0,22.7,18.4,41.1,41.1,41.1h117.7V317.5h-54V256h54v-46.8
		c0-53.3,31.7-82.7,80.3-82.7c23.2,0,47.6,4.1,47.6,4.1v52.3h-26.8c-26.4,0-34.6,16.4-34.6,33.2V256h59l-9.4,61.5h-49.5V448h117.6
		c22.7,0,41.1-18.4,41.1-41.1V105.1C448,82.4,429.6,64,406.9,64z"/>
</g>
<g id="Capa_4" class="st0">
	<path class="st2" d="M256,157.5c-54.5,0-98.5,44-98.5,98.5s44,98.5,98.5,98.5s98.5-44,98.5-98.5S310.5,157.5,256,157.5z M256,320
		c-35.2,0-64-28.7-64-64s28.7-64,64-64s64,28.7,64,64S291.3,320,256,320L256,320z M381.5,153.5c0,12.8-10.3,23-23,23
		c-12.8,0-23-10.3-23-23c0-12.7,10.3-23,23-23S381.5,140.8,381.5,153.5z M446.7,176.8c-1.5-30.8-8.5-58-31-80.5
		c-22.4-22.4-49.7-29.5-80.5-31c-31.7-1.8-126.7-1.8-158.4,0c-30.7,1.5-57.9,8.5-80.5,30.9s-29.5,49.7-31,80.5
		c-1.8,31.7-1.8,126.7,0,158.4c1.5,30.8,8.5,58,31,80.5c22.5,22.4,49.7,29.5,80.5,31c31.7,1.8,126.7,1.8,158.4,0
		c30.8-1.5,58-8.5,80.5-31c22.4-22.4,29.5-49.7,31-80.5C448.5,303.5,448.5,208.5,446.7,176.8L446.7,176.8z M405.7,369.2
		c-6.7,16.8-19.6,29.7-36.5,36.5c-25.3,10-85.3,7.7-113.2,7.7s-88,2.2-113.2-7.7c-16.8-6.7-29.7-19.6-36.5-36.5
		c-10-25.3-7.7-85.3-7.7-113.2s-2.2-88,7.7-113.2c6.7-16.8,19.6-29.7,36.5-36.5c25.3-10,85.3-7.7,113.2-7.7s88-2.2,113.2,7.7
		c16.8,6.7,29.7,19.6,36.5,36.5c10,25.3,7.7,85.3,7.7,113.2S415.8,344,405.7,369.2z"/>
</g>
<g id="Capa_5" class="st0">
	<path class="st4" d="M256,102.4c-83.1,0-150.6,67.5-150.7,150.6c0,28.5,8,56.2,23.1,80.1l3.5,5.7l-15.2,55.5l57-15l5.5,3.3
		c23.1,13.7,49.6,21,76.7,21h0.1c83,0,152.3-67.5,152.3-150.6c0-40.2-17.4-78.1-45.8-106.5C333.9,118.1,296.2,102.4,256,102.4
		L256,102.4z M344.6,317.7c-3.8,10.6-21.8,20.2-30.5,21.5c-14.4,2.2-25.6,1-54.3-11.3c-45.4-19.7-75.1-65.4-77.4-68.3
		c-2.3-3-18.5-24.6-18.5-46.9s11.7-33.3,15.9-37.8c4.1-4.6,9-5.7,12.1-5.7c3,0,6.1,0,8.7,0.1c2.7,0.1,6.5-1,10.2,7.8
		c3.8,9,12.8,31.3,13.9,33.6c1.1,2.3,1.9,4.9,0.3,7.9c-8.7,17.4-17.9,16.7-13.3,24.7c17.5,30.1,35,40.5,61.6,53.8
		c4.6,2.3,7.2,1.9,9.8-1.1c2.6-3,11.3-13.3,14.3-17.7c3-4.6,6.1-3.8,10.2-2.3c4.1,1.5,26.4,12.5,31,14.7c4.6,2.3,7.5,3.4,8.7,5.3
		C348.3,298.1,348.3,307.2,344.6,317.7z M457.1-1.3H54.9C24.6-1.3,0,23.2,0,53.5v402.3c0,30.3,24.6,54.9,54.9,54.9h402.3
		c30.3,0,54.9-24.6,54.9-54.9V53.5C512,23.2,487.4-1.3,457.1-1.3z M255.9,434.3c-30.4,0-60.2-7.7-86.6-22.1l-96.1,25.3l25.7-93.9
		c-15.9-27.4-24.2-58.6-24.2-90.6C74.7,153.1,156,71.8,255.9,71.8c48.5,0,93.9,18.9,128.2,53.1c34.2,34.3,54.7,79.8,54.7,128.2
		C438.9,353.1,355.8,434.3,255.9,434.3L255.9,434.3z"/>
</g>
</svg>
