<?xml version="1.0" encoding="utf-8"?>
<!-- Generator: Adobe Illustrator 22.0.0, SVG Export Plug-In . SVG Version: 6.00 Build 0)  -->
<svg version="1.1" id="Capa_1" xmlns="http://www.w3.org/2000/svg" xmlns:xlink="http://www.w3.org/1999/xlink" x="0px" y="0px"
	 viewBox="0 0 512 512" style="enable-background:new 0 0 512 512;" xml:space="preserve">
<style type="text/css">
	.st0{fill:#FFFFFF;}
</style>
<g>
	<path class="st0" d="M426,512c-113.3,0-226.6,0-340,0c-0.9-0.3-1.8-0.8-2.8-0.9c-39.4-5.4-70.9-33.7-80.5-72.5
		c-1-4.2-1.8-8.4-2.7-12.6C0,312.7,0,199.4,0,86c0.3-0.9,0.8-1.9,0.9-2.8c7-48.5,46.2-83,95.4-83.1c106.5-0.2,213-0.1,319.4-0.1
		c13.7,0,27,2.1,39.3,8.2c36.7,18.4,56.8,47.8,56.9,89.5c0.2,63.5,0,127,0,190.5c0,42.3,0.1,84.7,0,127c-0.2,42.8-26,78.7-66.2,92.1
		C439.4,509.4,432.6,510.5,426,512z M416.7,134.5c-10.9,4.3-21.5,8.6-32.2,12.6c-6.9,2.6-12.2,2.4-19-3.3
		c-22.4-18.8-48.4-21.2-74.3-8.6c-26,12.6-39.4,34.5-39.3,63.9c0,4.9,0.6,9.8,0.9,15c-58.5-4.3-106.2-28.8-144.1-73.1
		c-9.1,16.1-11.4,32.7-8.2,50.2c3.3,17.8,12.9,31.6,27.5,42.2c-0.3,0.6-0.7,1.1-1,1.7c-10.2-2.8-20.3-5.5-30.8-8.4
		c0,11.5,2.7,22.6,8.7,32.8c10.7,17.9,25.8,30,46.4,35c-0.1,0.6-0.2,1.2-0.3,1.8c-8.9,0-17.7,0-27.4,0c12.2,29.7,32.9,46.1,65,48.9
		c-30.5,23.3-64,32.3-101.7,29.1c0.9,0.8,1.3,1.3,1.8,1.6c15.8,9.7,32.7,17.2,50.6,22.1c27.4,7.6,55.1,8.9,83.2,5.1
		c36-4.9,68.8-17.7,96.3-41.6c48.7-42.3,73.7-95.9,73.3-160.9c0-2,1.5-4.6,3-6.1c4.7-4.5,10-8.3,14.5-13
		c5.7-5.9,10.7-12.4,16.9-19.7c-13.3,3.7-25,6.9-36.6,10.1c-0.2-0.5-0.5-1.1-0.7-1.6C402.4,161.5,411.7,149.6,416.7,134.5z"/>
</g>
</svg>
