<svg id="Capa_1" data-name="Capa 1" xmlns="http://www.w3.org/2000/svg" viewBox="0 0 99.21 89.75"><title>burger</title><path d="M99.21,11.58a31.37,31.37,0,0,1-2.29,4.19,9.11,9.11,0,0,1-7.61,3.54q-39.7,0-79.4,0A9.61,9.61,0,0,1,0,10.14C-.22,5,3.55.81,9.05.18A21.08,21.08,0,0,1,11.56.07c25,0,50,.1,75-.07,6.06,0,10.57,1.66,12.7,7.7Z" fill="#fff"/><path d="M99.21,46.84a30.73,30.73,0,0,1-2.44,4.31,9.26,9.26,0,0,1-7.7,3.38q-39.51,0-79,0c-5.8,0-10-4.22-10-9.61s4.24-9.6,10-9.61q39.51-.09,79,0c4.9,0,8.07,2.41,9.75,7.05a4.67,4.67,0,0,0,.39.63Z" fill="#fff"/><path d="M99.21,82.11c-.41.85-.76,1.74-1.22,2.56-2.14,3.81-5.58,5.09-9.74,5.08q-28.95,0-57.9,0H10.79c-3.08,0-5.92-.66-8.07-3A9.1,9.1,0,0,1,.65,76.85,9.31,9.31,0,0,1,8.56,70.6a18.84,18.84,0,0,1,2.71-.1c25.17,0,50.35.09,75.52-.08,6.07,0,10.41,1.82,12.42,7.81Z" fill="#fff"/></svg>